<svg xmlns="http://www.w3.org/2000/svg" viewBox="0 0 64 64" fill="none" stroke="#0A3A7E" stroke-width="2" stroke-linecap="round" stroke-linejoin="round">
  <!-- AC Unit body -->
  <rect x="12" y="36" width="40" height="20" rx="2" fill="#DDE8F5"/>
  <line x1="12" y1="36" x2="12" y2="56"/>
  <line x1="52" y1="36" x2="52" y2="56"/>
  <line x1="12" y1="56" x2="52" y2="56"/>
  <!-- Grille lines -->
  <line x1="16" y1="40" x2="48" y2="40"/>
  <line x1="16" y1="44" x2="48" y2="44"/>
  <line x1="16" y1="48" x2="48" y2="48"/>
  <line x1="16" y1="52" x2="48" y2="52"/>
  <!-- Fan on top -->
  <line x1="22" y1="36" x2="22" y2="32"/>
  <line x1="42" y1="36" x2="42" y2="32"/>
  <ellipse cx="32" cy="32" rx="12" ry="3" fill="#DDE8F5"/>
  <ellipse cx="32" cy="32" rx="12" ry="3"/>
  <!-- Fan blades -->
  <line x1="32" y1="29" x2="32" y2="18"/>
  <line x1="26" y1="30" x2="20" y2="22"/>
  <line x1="38" y1="30" x2="44" y2="22"/>
  <!-- Air flow lines -->
  <path d="M54 30 Q60 26 58 22"/>
  <path d="M56 34 Q62 30 60 26"/>
  <path d="M54 38 Q60 34 58 30"/>
  <!-- Vent pipe -->
  <line x1="32" y1="18" x2="32" y2="10"/>
  <path d="M28 10 Q32 6 36 10" fill="none"/>
</svg>
