<svg xmlns="http://www.w3.org/2000/svg" viewBox="0 0 64 64" fill="none" stroke="#0A3A7E" stroke-width="2" stroke-linecap="round" stroke-linejoin="round">
  <!-- Chat bubble -->
  <path d="M12 16C12 13.7909 13.7909 12 16 12H48C50.2091 12 52 13.7909 52 16V40C52 42.2091 50.2091 44 48 44H36L24 56V44H16C13.7909 44 12 42.2091 12 40V16Z" fill="#DDE8F5"/>
  <path d="M12 16C12 13.7909 13.7909 12 16 12H48C50.2091 12 52 13.7909 52 16V40C52 42.2091 50.2091 44 48 44H36L24 56V44H16C13.7909 44 12 42.2091 12 40V16Z" />
  <!-- Sparkle/AI indicator -->
  <path d="M32 24L34 30L40 32L34 34L32 40L30 34L24 32L30 30L32 24Z" fill="#0A3A7E"/>
  <!-- Dots inside bubble -->
  <circle cx="20" cy="28" r="2" fill="#0A3A7E"/>
  <circle cx="28" cy="28" r="2" fill="#0A3A7E"/>
  <circle cx="44" cy="28" r="2" fill="#0A3A7E"/>
</svg>
