<svg xmlns="http://www.w3.org/2000/svg" viewBox="0 0 64 64" fill="none" stroke="#0A3A7E" stroke-width="2" stroke-linecap="round" stroke-linejoin="round">
  <!-- Roof layers -->
  <path d="M8 40 L32 20 L56 40"/>
  <path d="M12 36 L32 20 L52 36"/>
  <path d="M16 32 L32 20 L48 32"/>
  <!-- House body below roof -->
  <rect x="14" y="40" width="36" height="20" fill="#DDE8F5"/>
  <line x1="14" y1="40" x2="50" y2="40"/>
  <line x1="14" y1="40" x2="14" y2="60"/>
  <line x1="50" y1="40" x2="50" y2="60"/>
  <line x1="14" y1="60" x2="50" y2="60"/>
  <!-- Shingles lines -->
  <line x1="20" y1="44" x2="44" y2="44"/>
  <line x1="20" y1="52" x2="44" y2="52"/>
  <line x1="28" y1="40" x2="28" y2="60"/>
  <line x1="36" y1="40" x2="36" y2="60"/>
  <!-- Chimney -->
  <rect x="38" y="24" width="8" height="12" fill="#DDE8F5"/>
  <line x1="38" y1="24" x2="38" y2="36"/>
  <line x1="46" y1="24" x2="46" y2="36"/>
  <line x1="38" y1="24" x2="46" y2="24"/>
</svg>
